# xmcd
#
# Track frame offsets:
#	150
#	11807
#	28472
#	43600
#	54705
#	64437
#	73957
#	88505
#	103932
#	110802
#	124072
#	137597
#
# Disc length: 2017 seconds
#
# Revision: 0
# Processed by: cddbd v1.5PL3 Copyright (c) Steve Scherf et al.
# Submitted via: dBpowerAMP V4.0
#
DISCID=bd07df0c
DTITLE=Catherine Sauvage - Catherine Sauvage chante Aragon
DYEAR=1964
DGENRE=Chanson
TTITLE0=Tu n'en reviendras pas
TTITLE1=Est ce ainsi que les hommes vivent  ?
TTITLE2=Il n'y a pas d'amour heureux
TTITLE3=Julienne
TTITLE4=Je t'aime tant
TTITLE5=Il n'aurait fallu
TTITLE6=Je chante pour passer le temps
TTITLE7=L'affiche rouge
TTITLE8=La belle jambe
TTITLE9=Elsa
TTITLE10=Blues
TTITLE11=J'entends, j'entends
EXTD=
EXTT0=
EXTT1=
EXTT2=
EXTT3=
EXTT4=
EXTT5=
EXTT6=
EXTT7=
EXTT8=
EXTT9=
EXTT10=
EXTT11=
PLAYORDER=
